<svg width="16" height="14" viewBox="0 0 16 14" fill="none" xmlns="http://www.w3.org/2000/svg">
<path d="M7.5208 13.5983L6.64695 12.8128C5.33461 11.6222 4.24937 10.5992 3.39122 9.74354C2.53308 8.88793 1.85305 8.12646 1.35116 7.45913C0.849264 6.7918 0.498597 6.18308 0.299158 5.63298C0.0997194 5.08287 0 4.52465 0 3.9583C0 2.83476 0.37883 1.89415 1.13649 1.13649C1.89415 0.37883 2.83476 0 3.9583 0C4.64949 0 5.30262 0.161633 5.91768 0.484899C6.53274 0.808166 7.06712 1.27175 7.5208 1.87566C7.97449 1.27175 8.50887 0.808166 9.12393 0.484899C9.73899 0.161633 10.3921 0 11.0833 0C12.2069 0 13.1475 0.37883 13.9051 1.13649C14.6628 1.89415 15.0416 2.83476 15.0416 3.9583C15.0416 4.52465 14.9419 5.08287 14.7425 5.63298C14.543 6.18308 14.1923 6.7918 13.6904 7.45913C13.1886 8.12646 12.5098 8.88793 11.6542 9.74354C10.7986 10.5992 9.71208 11.6222 8.39466 12.8128L7.5208 13.5983V13.5983M7.5208 11.9937C8.78747 10.8539 9.82983 9.87703 10.6479 9.06303C11.4659 8.24904 12.1125 7.54186 12.5875 6.94152C13.0625 6.34117 13.3923 5.80806 13.5771 5.3422C13.7618 4.87633 13.8541 4.41503 13.8541 3.9583C13.8541 3.16664 13.5902 2.50692 13.0625 1.97914C12.5347 1.45136 11.875 1.18747 11.0833 1.18747C10.4581 1.18747 9.88033 1.36483 9.35001 1.71956C8.81969 2.07429 8.39975 2.56782 8.09018 3.20014V3.20014H6.95143V3.20014C6.63678 2.56274 6.21557 2.06795 5.68779 1.71576C5.16001 1.36357 4.58352 1.18747 3.9583 1.18747C3.17171 1.18747 2.51326 1.45136 1.98294 1.97914C1.45263 2.50692 1.18747 3.16664 1.18747 3.9583C1.18747 4.41503 1.27983 4.87633 1.46455 5.3422C1.64928 5.80806 1.97914 6.34117 2.45414 6.94152C2.92914 7.54186 3.57567 8.24777 4.39372 9.05923C5.21178 9.87068 6.25414 10.8488 7.5208 11.9937V11.9937M7.5208 6.5906V6.5906V6.5906V6.5906V6.5906V6.5906V6.5906V6.5906V6.5906V6.5906V6.5906V6.5906V6.5906V6.5906V6.5906V6.5906V6.5906V6.5906V6.5906V6.5906V6.5906" fill="#444444"/>
</svg>
