<svg width="12" height="12" viewBox="0 0 12 12" fill="none" xmlns="http://www.w3.org/2000/svg">
<path d="M5.93747 5.54161C5.17322 5.54161 4.52035 5.27087 3.97888 4.7294C3.4374 4.18792 3.16667 3.53506 3.16667 2.7708C3.16667 2.00655 3.4374 1.35368 3.97888 0.812211C4.52035 0.270737 5.17322 0 5.93747 0C6.70173 0 7.35459 0.270737 7.89606 0.812211C8.43754 1.35368 8.70828 2.00655 8.70828 2.7708C8.70828 3.53506 8.43754 4.18792 7.89606 4.7294C7.35459 5.27087 6.70173 5.54161 5.93747 5.54161V5.54161M0 11.5704V9.81053C0 9.42282 0.105301 9.06378 0.315903 8.73342C0.526505 8.40305 0.8079 8.14906 1.16009 7.97145C1.94262 7.58779 2.732 7.30006 3.52823 7.10823C4.32446 6.9164 5.12754 6.82049 5.93747 6.82049C6.7474 6.82049 7.55048 6.9164 8.34671 7.10823C9.14294 7.30006 9.93232 7.58779 10.7149 7.97145C11.067 8.14906 11.3484 8.40305 11.559 8.73342C11.7696 9.06378 11.8749 9.42282 11.8749 9.81053V11.5704H0V11.5704M1.18747 10.383H10.6875V9.81053C10.6875 9.65017 10.641 9.50173 10.5482 9.36521C10.4553 9.2287 10.3292 9.11731 10.1698 9.03104C9.48779 8.69509 8.79232 8.44059 8.08344 8.26754C7.37456 8.09449 6.65924 8.00796 5.93747 8.00796C5.2157 8.00796 4.50038 8.09449 3.7915 8.26754C3.08262 8.44059 2.38716 8.69509 1.70511 9.03104C1.54576 9.11731 1.41965 9.2287 1.32678 9.36521C1.23391 9.50173 1.18747 9.65017 1.18747 9.81053V10.383V10.383M5.93747 4.35414C6.37289 4.35414 6.74563 4.1991 7.0557 3.88903C7.36577 3.57896 7.5208 3.20622 7.5208 2.7708C7.5208 2.33539 7.36577 1.96264 7.0557 1.65258C6.74563 1.34251 6.37289 1.18747 5.93747 1.18747C5.50205 1.18747 5.12931 1.34251 4.81924 1.65258C4.50917 1.96264 4.35414 2.33539 4.35414 2.7708C4.35414 3.20622 4.50917 3.57896 4.81924 3.88903C5.12931 4.1991 5.50205 4.35414 5.93747 4.35414V4.35414M5.93747 2.7708V2.7708V2.7708V2.7708V2.7708V2.7708V2.7708V2.7708V2.7708V2.7708M5.93747 10.383V10.383V10.383V10.383V10.383V10.383V10.383V10.383V10.383V10.383V10.383V10.383V10.383" fill="#444444"/>
</svg>
