<svg width="14" height="14" viewBox="0 0 14 14" fill="none" xmlns="http://www.w3.org/2000/svg">
<path d="M12.7763 13.6105L7.80398 8.63826C7.40815 8.96507 6.95294 9.22084 6.43836 9.40556C5.92377 9.59029 5.39143 9.68265 4.84132 9.68265C3.48941 9.68265 2.34454 9.21374 1.40672 8.27592C0.468908 7.33811 0 6.19324 0 4.84132C0 3.48941 0.468908 2.34454 1.40672 1.40672C2.34454 0.468908 3.48941 0 4.84132 0C6.19324 0 7.33811 0.468908 8.27592 1.40672C9.21374 2.34454 9.68265 3.48941 9.68265 4.84132C9.68265 5.40665 9.58775 5.94661 9.39795 6.46119C9.20815 6.97578 8.95492 7.42337 8.63826 7.80398L13.6105 12.7763L12.7763 13.6105V13.6105M4.84132 8.49518C5.86136 8.49518 6.72534 8.14121 7.43328 7.43328C8.14121 6.72534 8.49518 5.86136 8.49518 4.84132C8.49518 3.82129 8.14121 2.95731 7.43328 2.24937C6.72534 1.54144 5.86136 1.18747 4.84132 1.18747C3.82129 1.18747 2.95731 1.54144 2.24937 2.24937C1.54144 2.95731 1.18747 3.82129 1.18747 4.84132C1.18747 5.86136 1.54144 6.72534 2.24937 7.43328C2.95731 8.14121 3.82129 8.49518 4.84132 8.49518V8.49518" fill="#444444"/>
</svg>
