<svg width="12" height="16" viewBox="0 0 12 16" fill="none" xmlns="http://www.w3.org/2000/svg">
<path d="M1.43108 15.0416C1.03119 15.0416 0.692702 14.9031 0.415621 14.626C0.13854 14.3489 0 14.0104 0 13.6105V4.59775C0 4.19785 0.13854 3.85937 0.415621 3.58229C0.692702 3.30521 1.03119 3.16667 1.43108 3.16667H2.96874V2.96874C2.96874 2.14865 3.2585 1.44884 3.83804 0.869306C4.41758 0.289769 5.11739 0 5.93747 0C6.75755 0 7.45736 0.289769 8.0369 0.869306C8.61644 1.44884 8.90621 2.14865 8.90621 2.96874V3.16667H10.4439C10.8438 3.16667 11.1822 3.30521 11.4593 3.58229C11.7364 3.85937 11.8749 4.19785 11.8749 4.59775V13.6105C11.8749 14.0104 11.7364 14.3489 11.4593 14.626C11.1822 14.9031 10.8438 15.0416 10.4439 15.0416H1.43108V15.0416M1.43108 13.8541H10.4439C10.5048 13.8541 10.5606 13.8288 10.6113 13.778C10.6621 13.7273 10.6875 13.6714 10.6875 13.6105V4.59775C10.6875 4.53684 10.6621 4.48102 10.6113 4.43026C10.5606 4.37951 10.5048 4.35414 10.4439 4.35414H8.90621V6.1354C8.90621 6.30388 8.84937 6.44496 8.7357 6.55863C8.62203 6.6723 8.48095 6.72914 8.31247 6.72914C8.14399 6.72914 8.00292 6.6723 7.88924 6.55863C7.77557 6.44496 7.71874 6.30388 7.71874 6.1354V4.35414H4.15621V6.1354C4.15621 6.30388 4.09937 6.44496 3.9857 6.55863C3.87203 6.6723 3.73095 6.72914 3.56247 6.72914C3.39399 6.72914 3.25292 6.6723 3.13924 6.55863C3.02557 6.44496 2.96874 6.30388 2.96874 6.1354V4.35414H1.43108C1.37018 4.35414 1.31435 4.37951 1.2636 4.43026C1.21285 4.48102 1.18747 4.53684 1.18747 4.59775V13.6105C1.18747 13.6714 1.21285 13.7273 1.2636 13.778C1.31435 13.8288 1.37018 13.8541 1.43108 13.8541V13.8541M4.15621 3.16667H7.71874V2.96874C7.71874 2.47242 7.54594 2.05146 7.20034 1.70586C6.85475 1.36027 6.43379 1.18747 5.93747 1.18747C5.44115 1.18747 5.0202 1.36027 4.6746 1.70586C4.329 2.05146 4.15621 2.47242 4.15621 2.96874V3.16667V3.16667M1.18747 13.8541V13.8541C1.18747 13.8541 1.18747 13.8288 1.18747 13.778C1.18747 13.7273 1.18747 13.6714 1.18747 13.6105V4.59775C1.18747 4.53684 1.18747 4.48102 1.18747 4.43026C1.18747 4.37951 1.18747 4.35414 1.18747 4.35414V4.35414C1.18747 4.35414 1.18747 4.37951 1.18747 4.43026C1.18747 4.48102 1.18747 4.53684 1.18747 4.59775V13.6105C1.18747 13.6714 1.18747 13.7273 1.18747 13.778C1.18747 13.8288 1.18747 13.8541 1.18747 13.8541V13.8541" fill="#444444"/>
</svg>
